# File created by Blade
# Date/Time:  Tue Jan 27 19:58:31 2015
# Frame Rate: 120.000 fps
#------------------------------------------------------
:FULLY-SPECIFIED
:DEGREES
2541
root 6.819717 34.119468 3.419680 8.458317 -6.337459 -28.809313
Spine 0.510247 8.911570 21.799730
Head -2.624397 -8.546048 13.514175
LeftShoulder -14.462358 -0.288633 32.453140
LeftArm -5.754622 -1.251838 -83.736527
LeftForeArm -26.188684 0.000000 119.254638
LeftHand 10.409047 -0.000000 -34.807539
LeftHandThumb1 -26.253704 0.000000 33.147579
RightShoulder -19.759680 -19.089439 -20.686156
RightArm 3.081316 9.456668 72.564331
RightForeArm -15.249164 -0.000000 15.929672
RightHand 18.705180 -0.000000 5.209656
RightHandThumb1 -24.326973 -0.000000 -32.862282
LeftUpLeg 4.172110 9.009295 18.889650
LeftLeg -4.803429 -0.000000 0.000000
LeftFoot -15.820102 13.695915 -14.489878
LeftToeBase 23.440007 -0.000000 -0.000000
RightUpLeg -29.901367 -29.391693 -38.477596
RightLeg 115.974938 -0.000000 -0.000000
RightFoot 32.955859 -21.520399 16.662427
RightToeBase 14.944613 -0.000000 -0.000000
2542
root 6.815369 34.128725 3.399577 8.594133 -6.102041 -28.903855
Spine 0.520846 8.870728 21.784279
Head -3.269474 -8.620313 14.050932
LeftShoulder -14.340399 -0.465182 32.541046
LeftArm -5.771585 -1.352016 -83.754239
LeftForeArm -26.167655 0.000000 119.343741
LeftHand 10.492709 0.000000 -34.620016
LeftHandThumb1 -26.253704 0.000000 33.147579
RightShoulder -19.886365 -19.138633 -20.509542
RightArm 3.074535 9.284769 72.412585
RightForeArm -14.947973 -0.000000 15.895014
RightHand 18.679774 -0.000000 4.866287
RightHandThumb1 -24.326973 -0.000000 -32.862282
LeftUpLeg 3.930462 8.922233 19.001625
LeftLeg -4.847972 -0.000000 0.000000
LeftFoot -15.756509 13.625197 -14.478654
LeftToeBase 23.530438 -0.000000 -0.000000
RightUpLeg -29.745766 -30.099192 -38.499243
RightLeg 116.165883 -0.000000 -0.000000
RightFoot 33.170729 -21.253588 16.614051
RightToeBase 15.096295 -0.000000 -0.000000
2543
root 6.808928 34.137721 3.376466 8.749356 -5.968466 -29.000684
Spine 0.563208 8.848667 21.745646
Head -3.902931 -8.589516 14.572610
LeftShoulder -14.293666 -0.623127 32.643263
LeftArm -5.812936 -1.462073 -83.758696
LeftForeArm -26.212893 0.000000 119.425534
LeftHand 10.475613 -0.000000 -34.628098
LeftHandThumb1 -26.253704 0.000000 33.147579
RightShoulder -19.930448 -19.060144 -20.398631
RightArm 2.999389 9.325748 72.316152
RightForeArm -14.936189 -0.000000 15.853075
RightHand 18.580204 -0.000000 4.947691
RightHandThumb1 -24.326973 -0.000000 -32.862282
LeftUpLeg 3.718512 8.868113 19.112544
LeftLeg -4.900211 -0.000000 0.000000
LeftFoot -15.696867 13.602709 -14.480207
LeftToeBase 23.475396 -0.000000 -0.000000
RightUpLeg -29.766323 -30.808790 -38.402046
RightLeg 116.348720 -0.000000 -0.000000
RightFoot 33.441032 -20.936422 16.440743
RightToeBase 14.831134 -0.000000 -0.000000
2544
root 6.801917 34.143992 3.350423 8.928984 -5.916286 -29.074027
Spine 0.592555 8.878083 21.649292
Head -4.457703 -8.539597 15.073573
LeftShoulder -14.213457 -0.698762 32.749749
LeftArm -5.827660 -1.627482 -83.758309
LeftForeArm -26.354730 -0.000000 119.548962
LeftHand 10.542969 -0.000000 -34.681597
LeftHandThumb1 -26.253704 0.000000 33.147579
RightShoulder -19.963374 -19.082283 -20.267092
RightArm 3.050859 9.362973 72.278778
RightForeArm -15.067380 0.000000 15.788078
RightHand 18.529686 -0.000000 4.991607
RightHandThumb1 -24.326973 -0.000000 -32.862282
LeftUpLeg 3.518009 8.820853 19.184470
LeftLeg -4.949935 -0.000000 0.000000
LeftFoot -15.606816 13.643976 -14.377862
LeftToeBase 23.308610 -0.000000 -0.000000
RightUpLeg -29.952652 -31.524550 -38.233494
RightLeg 116.544042 -0.000000 -0.000000
RightFoot 33.547406 -20.686242 16.339740
RightToeBase 15.135190 -0.000000 -0.000000
2545
root 6.795647 34.149254 3.324982 9.105270 -5.951952 -29.161400
Spine 0.655393 8.974931 21.567637
Head -4.975455 -8.462329 15.537603
LeftShoulder -14.107661 -0.840488 32.882261
LeftArm -5.951766 -1.798397 -83.768074
LeftForeArm -26.424978 -0.000000 119.705257
LeftHand 10.517160 -0.000000 -34.539258
LeftHandThumb1 -26.253704 0.000000 33.147579
RightShoulder -20.019072 -18.998825 -20.172692
RightArm 3.051149 9.268542 72.217910
RightForeArm -15.220156 -0.000000 15.692541
RightHand 18.509348 -0.000000 4.871177
RightHandThumb1 -24.326973 -0.000000 -32.862282
LeftUpLeg 3.395297 8.848061 19.268573
LeftLeg -5.073380 -0.000000 0.000000
LeftFoot -15.625069 13.675497 -14.546735
LeftToeBase 23.579048 -0.000000 -0.000000
RightUpLeg -30.255523 -32.188262 -37.966044
RightLeg 116.669037 -0.000000 -0.000000
RightFoot 33.750461 -20.601847 16.329356
RightToeBase 15.147397 -0.000000 -0.000000
2546
root 6.795542 34.155122 3.293997 9.324020 -6.085119 -29.240845
Spine 0.710339 9.055050 21.494860
Head -5.408354 -8.306777 15.900363
LeftShoulder -14.095609 -0.785675 32.927241
LeftArm -5.937197 -1.982113 -83.755065
LeftForeArm -26.598771 -0.000000 119.858444
LeftHand 10.565960 0.000000 -34.548265
LeftHandThumb1 -26.253704 0.000000 33.147579
RightShoulder -19.931408 -18.961952 -20.124250
RightArm 3.071903 9.166310 72.207232
RightForeArm -15.457953 -0.000000 15.698205
RightHand 18.456225 -0.000000 4.464492
RightHandThumb1 -24.326973 -0.000000 -32.862282
LeftUpLeg 3.255815 8.922364 19.312271
LeftLeg -5.168506 -0.000000 0.000000
LeftFoot -15.618709 13.762586 -14.642382
LeftToeBase 23.765170 -0.000000 -0.000000
RightUpLeg -30.770622 -32.721573 -37.578263
RightLeg 116.783920 -0.000000 -0.000000
RightFoot 33.941198 -20.390090 16.378564
RightToeBase 15.243288 -0.000000 -0.000000
2547
root 6.790398 34.157162 3.273298 9.477439 -6.218511 -29.300155
Spine 0.799808 9.101151 21.390533
Head -5.766732 -8.122199 16.195665
LeftShoulder -14.099787 -0.763930 33.006862
LeftArm -5.965947 -2.134804 -83.714433
LeftForeArm -26.613710 -0.000000 120.027552
LeftHand 10.533742 -0.000000 -34.416520
LeftHandThumb1 -26.253704 0.000000 33.147579
RightShoulder -19.877629 -18.936464 -20.067987
RightArm 3.114080 9.145770 72.205505
RightForeArm -15.613390 -0.000000 15.731905
RightHand 18.462001 0.000000 4.529537
RightHandThumb1 -24.326973 -0.000000 -32.862282
LeftUpLeg 3.208990 9.032364 19.352296
LeftLeg -5.285986 -0.000000 0.000000
LeftFoot -15.579775 13.820428 -14.671404
LeftToeBase 23.695750 -0.000000 -0.000000
RightUpLeg -31.190604 -33.283823 -37.245305
RightLeg 116.860212 -0.000000 -0.000000
RightFoot 34.120961 -20.236090 16.286356
RightToeBase 14.964567 -0.000000 -0.000000
